<svg xmlns="http://www.w3.org/2000/svg" viewBox="0 0 17 16">
    <path fill="#C4C4C4" d="M232 10.99999956l-4.33012954-5.25000038 8.660257 7.6e-7L232 10.99999956z"/>
    <g fill="#171717">
        <path d="M.600345 16H16.3997c.3367 0 .6003-.2684.6003-.6114V1.74464c0-.34296-.2636-.61137-.6003-.61137h-2.9725v-.5219C13.4272.268406 13.1637 0 12.8269 0c-.3368 0-.6004.268406-.6004.61137v.5219H4.87597v-.5219C4.87597.268406 4.6124 0 4.27562 0c-.33677 0-.60034.268406-.60034.61137v.5219H.600345C.263566 1.13327 0 1.40168 0 1.74464V15.4035C0 15.7316.278208 16 .600345 16zM1.20069 2.35601h2.47459v.32805c0 .34297.26357.61137.60034.61137.33678 0 .60035-.2684.60035-.61137v-.32805h7.35053v.32805c0 .34297.2636.61137.6004.61137.3368 0 .6003-.2684.6003-.61137v-.32805h2.3868v1.58062H1.20069V2.35601zm0 2.80336H15.7993v9.63283H1.20069V5.15937z"/>
        <path d="M12.8273 7.96289H4.18824c-.33678 0-.60035.26841-.60035.61137s.26357.61137.60035.61137h8.63906c.3368 0 .6004-.26841.6004-.61137s-.2636-.61137-.6004-.61137zM8.50779 10.916H4.18824c-.33678 0-.60035.2684-.60035.6114 0 .3429.26357.6114.60035.6114h4.31955c.33678 0 .60034-.2685.60034-.6114 0-.343-.26356-.6114-.60034-.6114z"/>
    </g>
</svg>