<svg width="17" height="17" viewBox="0 0 17 17" version="1.1" xmlns="http://www.w3.org/2000/svg" xmlns:xlink="http://www.w3.org/1999/xlink">
    <title>Page 1</title>
    <desc>Created using Figma</desc>
    <g id="Canvas" transform="translate(-14301 10660)">
        <g id="Ellipse (Stroke)">
            <path fill-rule="evenodd" d="M 8.5 15.5C 12.366 15.5 15.5 12.366 15.5 8.5C 15.5 4.63401 12.366 1.5 8.5 1.5C 4.63401 1.5 1.5 4.63401 1.5 8.5C 1.5 12.366 4.63401 15.5 8.5 15.5ZM 8.5 17C 13.1944 17 17 13.1944 17 8.5C 17 3.80558 13.1944 0 8.5 0C 3.80558 0 0 3.80558 0 8.5C 0 13.1944 3.80558 17 8.5 17Z" transform="translate(14301 -10660)" fill="#171717"></path>
        </g>
        <g id="Vector 2 (Stroke)">
            <path fill-rule="evenodd" d="M 0 0L 1.5 0L 1.5 3.77292L 3.37404 6.58397L 2.12596 7.41603L 0 4.22708L 0 0Z" transform="translate(14308.8 -10655)" fill="#171717"></path>
        </g>
    </g>
</svg>