<svg xmlns="http://www.w3.org/2000/svg" viewBox="0 0 3 15">
    <path fill="#E85858"
          d="M2.63309 0v5.89691c0 .61855-.02877 1.2268-.08633 1.82474-.05755.59106-.13309 1.23024-.22662 1.91753H.755396C.654676 8.95189.57554 8.31271.517986 7.72165c-.05036-.59794-.07554-1.20619-.07554-1.82474V0H2.63309zM0 13.567c0-.1993.0359712-.3849.107914-.5567.079136-.1787.18705-.3333.323741-.4639.13669-.1306.294964-.2337.47482-.3093.179855-.0756.377695-.1134.593525-.1134.20863 0 .40288.0378.58273.1134.18705.0756.34533.1787.47482.3093.13669.1306.24461.2852.32374.4639.07914.1718.11871.3574.11871.5567 0 .2062-.03957.3952-.11871.567-.07913.1718-.18705.323-.32374.4536-.12949.1306-.28777.2303-.47482.299C1.90288 14.9622 1.70863 15 1.5 15c-.21583 0-.41367-.0378-.593525-.1134-.179856-.0687-.33813-.1684-.47482-.299-.136691-.1306-.244605-.2818-.323741-.4536C.0359712 13.9622 0 13.7732 0 13.567z"/>
</svg>