<svg width="17" height="20" viewBox="0 0 17 20" version="1.1" xmlns="http://www.w3.org/2000/svg"
     xmlns:xlink="http://www.w3.org/1999/xlink">
    <title>Group 6.5</title>
    <desc>Created using Figma</desc>
    <g id="Canvas" transform="translate(-12568 6518)">
        <g id="Group 6.5">
            <g id="placeholder">
                <g id="Group">
                    <g id="Group">
                        <g id="Vector">
                            <path d="M 8.50916 1.64285e-08C 3.82269 1.64285e-08 1.40215e-07 3.58312 1.40215e-07 7.99311C 1.40215e-07 8.52713 0.055135 9.06115 0.165405 9.57795C 0.165405 9.6124 0.183783 9.64686 0.183783 9.69854C 1.12108 13.6434 7.71889 19.5693 7.99456 19.8105C 8.14159 19.9483 8.32537 20 8.50916 20C 8.69294 20 8.87672 19.9311 9.02375 19.8105C 9.29942 19.5521 15.8605 13.6434 16.7978 9.78467C 16.7978 9.75022 16.8162 9.71576 16.8162 9.68131C 16.9448 9.13006 16.9999 8.56158 16.9999 7.99311C 17.0183 3.58312 13.1956 1.64285e-08 8.50916 1.64285e-08ZM 15.3459 9.42291C 15.3459 9.45736 15.3459 9.44014 15.3459 9.47459C 14.6475 12.3342 10.0713 16.8475 8.50916 18.3118C 6.947 16.8475 2.35242 12.3342 1.65405 9.40568C 1.65405 9.37123 1.65405 9.354 1.63567 9.31955C 1.54378 8.87166 1.48864 8.42377 1.48864 7.97588C 1.48864 4.35831 4.63133 1.39535 8.49078 1.39535C 12.3502 1.39535 15.5113 4.34108 15.5113 7.97588C 15.5113 8.47545 15.4562 8.95779 15.3459 9.42291Z"
                                  transform="matrix(-1 0 0 1 12585 -6518)"></path>
                        </g>
                    </g>
                </g>
            </g>
            <g id="Ellipse 3">
                <mask id="mask0_outline_ins">
                    <path d="M 7.81081 3.69565C 7.81081 5.7367 6.0623 7.3913 3.90541 7.3913C 1.74851 7.3913 0 5.7367 0 3.69565C 0 1.6546 1.74851 0 3.90541 0C 6.0623 0 7.81081 1.6546 7.81081 3.69565Z"
                          fill="white" transform="matrix(-1 0 0 1 12580.4 -6513.65)"></path>
                </mask>
                <g mask="url(#mask0_outline_ins)">
                    <path d="M 6.31081 3.69565C 6.31081 4.83133 5.31297 5.8913 3.90541 5.8913L 3.90541 8.8913C 6.81163 8.8913 9.31081 6.64208 9.31081 3.69565L 6.31081 3.69565ZM 3.90541 5.8913C 2.49784 5.8913 1.5 4.83133 1.5 3.69565L -1.5 3.69565C -1.5 6.64208 0.99918 8.8913 3.90541 8.8913L 3.90541 5.8913ZM 1.5 3.69565C 1.5 2.55997 2.49784 1.5 3.90541 1.5L 3.90541 -1.5C 0.99918 -1.5 -1.5 0.749228 -1.5 3.69565L 1.5 3.69565ZM 3.90541 1.5C 5.31297 1.5 6.31081 2.55997 6.31081 3.69565L 9.31081 3.69565C 9.31081 0.749228 6.81163 -1.5 3.90541 -1.5L 3.90541 1.5Z"
                          transform="matrix(-1 0 0 1 12580.4 -6513.65)"></path>
                </g>
            </g>
        </g>
    </g>
</svg>