<svg xmlns="http://www.w3.org/2000/svg" viewBox="0 0 127 101">
    <path fill="#FFF" d="M16.4674 59.79999999H0V62.78795h6.74706V76.3486h3.08763V62.78795h6.63271v-2.98795001z"/>
    <path fill="#99E540"
          d="M72.1674 62.78795v-2.98795001H55.70000087V62.78795H62.44706v5.63113l-6.632704 6.66542 2.058424 2.1835 6.06092-6.0908 5.9466 6.0908 2.1727-2.1835-6.63266-6.66542v-5.63113h6.74706z"/>
    <path fill="#FFF"
          d="M35.63419 61.98795c3.31631 0 6.06091 2.7581 6.06091 6.09081 0 3.33274-2.7446 6.09084-6.06091 6.09084-3.31635 0-6.06091-2.7581-6.06091-6.09084 0-3.33271 2.74456-6.09081 6.06091-6.09081zm0-2.98795c-5.0317 0-9.03419087 4.02224-9.03419087 9.07876 0 5.05654 4.00249087 9.07874 9.03419087 9.07874 5.03171 0 9.03421-4.0222 9.03421-9.07874C44.6684 63.02224 40.5515 59 35.63419 59zm81.6 2.98795c3.31631 0 6.06091 2.7581 6.06091 6.09081 0 3.33274-2.7446 6.09084-6.06091 6.09084-3.31635 0-6.06091-2.7581-6.06091-6.09084 0-3.33271 2.74456-6.09081 6.06091-6.09081zm0-2.98795c-5.0317 0-9.03419174 4.02224-9.03419174 9.07876 0 5.05654 4.00249174 9.07874 9.03419174 9.07874 5.03171 0 9.03421-4.0222 9.03421-9.07874 0-5.05652-4.1169-9.07876-9.03421-9.07876zM97.5803 59l-6.06096 6.09082L85.57278 59l-2.17277826 2.1835L90.0327 67.734v8.6191h2.97328v-8.50418l6.63272-6.66542L97.5803 59zM36.6 99.0251l.800499-1.26413c.914851.68953 1.829711 1.03429 2.630211 1.03429.80049 0 1.25792-.34476 1.25792-.91937 0-.5746-.8005-.80444-1.71535-1.03428h-.11436c-1.25792-.34477-2.51585-.80445-2.51585-2.41335 0-1.608892 1.25793-2.52825956 2.85892-2.52825956 1.02921 0 2.17279.34476256 2.97328.91936756l-.8005 1.379052c-.80049-.45968-1.60099-.80445-2.28713-.80445s-1.14357.34477-1.14357.80445c0 .57461.8005.80445 1.71535 1.14921h.11436c1.14357.34477 2.51585.91937 2.51585 2.41334 0 1.72382-1.37228 2.52827-3.08764 2.52827-.91485 0-2.17278-.45969-3.20199-1.26414zm12.20000087-1.83873v-5.28636956H50.62971V96.61176c0 1.26414.68614 1.95366 1.71535 1.95366s1.82971-.80445 1.82971-2.06858v-4.59683956h1.82971V100.17432h-1.82971v-1.26413c-.57178.80444-1.25792 1.49397-2.51585 1.49397-1.82971-.11492-2.85891913-1.37905-2.85891913-3.21779zM61.8 99.0251l.800499-1.26413c.914851.68953 1.829711 1.03429 2.630211 1.03429.80049 0 1.25792-.34476 1.25792-.91937 0-.5746-.8005-.80444-1.71535-1.03428h-.11436c-1.25792-.34477-2.51585-.80445-2.51585-2.41335 0-1.608892 1.25793-2.52825956 2.85892-2.52825956 1.02921 0 2.17279.34476256 2.97328.91936756l-.8005 1.379052c-.80049-.45968-1.60099-.80445-2.28713-.80445s-1.14357.34477-1.14357.80445c0 .57461.8005.80445 1.71535 1.14921h.11436c1.14357.34477 2.51585.91937 2.51585 2.41334 0 1.72382-1.37228 2.52827-3.08764 2.52827-.91485 0-2.17278-.45969-3.20199-1.26414zm12.19999651-10.22510044H75.82971V93.167c.57179-.80445 1.25793-1.49397 2.51585-1.49397 1.82971 0 2.85892 1.26413 2.85892 3.21779v5.28638h-1.82971v-4.71178c0-1.26413-.68614-1.95366-1.71535-1.95366s-1.82971.80445-1.82971 2.06858v4.59686h-1.82971349V88.79999956zM87.5 88.9h2.05843v1.83874H87.5V88.9zm.114355 2.98795h1.829705v8.27435h-1.829705v-8.27435z"/>
    <path fill="#99E540"
          d="M57.65556 0c-.25681 0-.5111.0508542-.74836.149647-.237256.098793-.45284.24359-.63443.426136-.18159.182545-.32563.399264-.423906.637767-.0982759.23851-.148864.49414-.148864.7523V46.4079c.0459366.4871.270899.9394.630916 1.2686.360018.3293.829224.5117 1.315914.5117.48669 0 .95589-.1824 1.31591-.5117.36001-.3292.58498-.7815.63091-1.2686V1.96585c.00002-.51835-.20362-1.015728-.56659-1.383894C58.6641.21379 58.17117.00462809 57.65556 0z"/>
    <path fill="#FFF"
          d="M27.96429 15.5999984c-.51865 0-1.016054.2071156-1.382792.5757826-.366737.368667-.57276926.868689-.57276926 1.390059V30.9055c-.02570784.2726.00551806.5475.09166326.8073.086144.2597.225306.4985.408586.7011.18328.2025.40663.3643.655732.475.24911.1108.51847.168.79084.168s.54175-.0572.79085-.168c.2491-.1107.47244-.2725.65572-.475.18328-.2026.32245-.4414.4086-.7011.08614-.2598.11737-.5347.09166-.8073V17.56584c.00002-.51834-.20362-1.015719-.56659-1.383886-.36297-.368166-.85589-.57732751-1.3715-.5819556zm14.88253-8.89999947c-.51562.00462809-1.008539.21379007-1.371508.58195607-.36297.368166-.56659636.865545-.5665758 1.383885V39.8034c-.0257078.2725.0055047.5475.0916498.8073.086145.2597.225319.4985.408599.701.183281.2026.40663.3644.655735.4751.2491.1108.51847.168.79084.168s.54173-.0572.79083-.168c.24911-.1107.47246-.2725.65574-.4751.18328-.2025.32245-.4413.4086-.701.08614-.2598.11735-.5348.09165-.8073V8.66584c0-.52137-.20604-1.021392-.57277-1.390058-.36674-.368667-.86415-.57578307-1.38279-.57578307zm7.37381-3.29968249c-.50956.00912892-.995438.21786656-1.354175.58176856-.358737.363903-.56198554.854215-.566455 1.366525V42.998c6e-8.5213.206032 1.0214.57277 1.39.366737.3687.86414.5758 1.38279.5758.51864 0 1.01604-.2071 1.38277-.5758.36674-.3686.57277-.8687.57277-1.39V5.34861c-.00226-.25966-.05568-.51629-.15716-.75508-.10148-.23879-.24901-.455003-.43408-.636152-.18507-.181148-.40401-.323653-.64417-.419266-.24016-.0956125-.49679-.14244247-.75506-.13779556zm14.94366.7996857c-.51563-.00002066-1.010409.20467686-1.376649.56955586-.36624.364879-.5743068.860412-.57891067 1.378732V42.2882c-.02570783.2726.00550467.5475.09164967.8073.086145.2597.225319.4985.4086.7011.18328.2025.40663.3643.65573.475.24911.1108.51847.168.79084.168s.54175-.0572.79085-.168c.2491-.1107.47244-.2725.65572-.475.18328-.2026.32246-.4414.4086-.7011.08615-.2598.11737-.5347.09166-.8073V6.14829c0-.51672-.20419-1.012272-.56765-1.377647s-.85643-.57064086-1.37044-.57064086zm7.3738 3.29999518c-.51402 0-1.006969.20526568-1.370432.57064068-.363463.365375-.5676676.860932-.5676676 1.377652V39.0061c.0459367.4871.2708986.9394.6309166 1.2687.360018.3292.829223.5116 1.315913.5116.4867 0 .9559-.1824 1.31592-.5116.36002-.3293.58498-.7816.63092-1.2687V9.44829c-.00461-.51833-.21267-1.013844-.57891-1.378723-.36624-.36488-.86103-.56959034-1.37666-.56956968zm7.43689 5.60010278c-.26579-.00265268-.52934.0491929-.77452.1523659-.245188.103172-.466887.255501-.651539.447695-.184653.192195-.328369.420209-.422414.670129-.0940451.24991-.13643209.51648-.12455292.78341v18.184c0 .5214.20601892 1.0214.57275592 1.3901.366738.3687.86414.5758 1.38279.5758.51864 0 1.01605-.2071 1.38279-.5758.36674-.3687.57278-.8687.57278-1.3901v-18.184c.01174-.26398-.02958-.52762-.12149-.77518s-.23252-.473954-.41343-.665651c-.18092-.191696-.39843-.344768-.63952-.450052-.2411-.1052846-.5008-.16062143-.76365-.1627169zm7.4893 3.29989454c-.2568 0-.51109.05085426-.74835.14964736-.237261.098792-.452846.24359-.634436.426135-.18159.182546-.32563.399264-.423906.637773-.0982754.2385-.14885021.49413-.14885021.75229V29.9854c-.02570779.2726.00550471.5475.09164921.8073.086145.2597.225306.4985.408587.701.18328.2026.406643.3644.655746.4751.2491.1108.51845.168.79082.168s.54175-.0572.79085-.168c.24911-.1107.47245-.2725.65573-.4751.18328-.2025.32246-.4413.40861-.701.08614-.2598.11736-.5347.09165-.8073V18.36584c.00002-.51835-.20361-1.015723-.56658-1.383889-.36297-.368167-.8559-.57732826-1.37152-.58195636zM94.84682 9.5c-.51561.00462809-1.008547.21379-1.371516.581956-.36297.368166-.56659635.865544-.5665758 1.383894V36.9516c-.0257078.2725.0055047.5475.0916498.8073.086145.2597.225333.4985.408613.701.18328.2026.406616.3644.655719.4751.24911.1108.51848.168.79085.168s.54172-.0572.79083-.168c.2491-.1107.47246-.2725.65574-.4751.18328-.2025.32244-.4413.40859-.701.08614-.2598.11736-.5348.09165-.8073V11.46585c0-.52138-.20602-1.021401-.57276-1.390067C95.86287 9.707116 95.36547 9.5 94.84682 9.5zm7.49126-5.99999893c-.51401 0-1.006961.20526593-1.370424.57064093-.363463.365375-.56766772.860928-.56766772 1.377648V42.8695c.04593662.487.27089872.9394.63091672 1.2686.360017.3292.829225.5117 1.315915.5117.48669 0 .9559-.1825 1.31592-.5117.36002-.3292.58498-.7816.63092-1.2686V5.44829c-.00461-.51832-.21268-1.013854-.57892-1.378733-.36624-.364879-.86102-.56957659-1.37666-.56955593zm-66.9738 7.29999303c-.51564-.00002065-1.01041.2046899-1.37665.5695689-.36624.364879-.5742937.860397-.57889753 1.378717V35.5661c-.02570777.2726.00550473.5475.09164953.8073.086145.2597.225319.4985.4086.7011.18328.2025.40663.3643.655738.4751.2491.1107.51846.1679.79083.1679s.54174-.0572.79084-.1679c.2491-.1108.47245-.2726.65573-.4751.18328-.2026.32246-.4414.4086-.7011.08615-.2598.11736-.5347.09165-.8073V12.74828c0-.51671-.20419-1.01227-.56765-1.377645s-.85643-.5706409-1.37044-.5706409z"/>
</svg>