<svg xmlns="http://www.w3.org/2000/svg" viewBox="0 0 264 273">
    <path fill="#F2F2F2"
          d="M1.9992346 166.65924696l5.28759697 2.06247333c-1.6269614 4.06019456-2.08527487 7.72882703-.69274111 11.79251474 1.21941274 3.55795973 3.61982228 5.25067026 6.18347341 4.37170353 2.3298848-.80059749 3.13794425-2.5284282 2.4827009-9.11738654-.76805482-7.5338253-.06460685-12.1749542 6.03250739-14.26078708 5.57737265-1.90708099 11.049197 1.46305072 13.28773063 7.96054538 1.63735245 4.78719825 1.49866564 9.06509176-.0117666 13.30340506l-5.3827644-1.60848217c1.16413538-3.69874312 1.32367898-7.05478114.29967787-10.05422635-1.16253648-3.37527612-3.5485893-4.74312401-5.77402516-3.98676196-2.5115021.85683754-3.10849516 2.74353503-2.45602344 9.51980492.69355679 7.50331214-.524013 11.948494-6.01434588 13.81879944-6.09710752 2.08579745-11.37723053-1.51028388-13.73689905-8.39083758-1.7464488-4.94784203-1.6383591-10.2675179.49487847-15.41076472zm22.96036737 32.61860232l15.6988007-12.0879832 3.69500403 4.8465193-15.5122445 11.94691285c-5.06120975 3.90147684-5.78716361 8.63485669-2.47649627 12.96164128 3.27098673 4.28158012 7.86256975 4.9429157 12.89640042 1.07366795l15.70878594-12.11287002 3.69501663 4.84654907-15.46736307 11.90723872c-8.13933285 6.2805506-15.77637405 4.7787375-21.28175876-2.40332114-5.4631643-7.17930582-4.86409118-14.87854054 3.04385488-20.9783548zM45.8064841 238.1826426l5.43021575-1.57595535c1.17111718 4.21957869 3.02228448 7.4271219 6.60203058 9.81994707 3.1230131 2.0899624 6.03078599 1.97520214 7.53313222-.29492369 1.3627073-2.06622528.94079507-3.93505516-3.55938088-8.79214239-5.16260312-5.5486057-7.41738395-9.66075077-3.86232104-15.03388034 3.24877929-4.93319234 9.62436587-5.58581439 15.32419465-1.77450177 4.18293088 2.79922209 6.67732913 6.31350446 8.0221797 10.60415802l-5.22708562 2.00696438c-1.30617655-3.6659759-3.2177558-6.43439105-5.84425358-8.17612297-2.951718-1.97628341-5.67851008-1.62804622-6.99388662.35608076-1.46489392 2.21291002-.8144048 4.08835303 3.82974914 9.09128951 5.10298284 5.55322193 6.82062243 9.85149872 3.61926598 14.70255375-3.555155 5.37316857-9.90543774 5.74618765-15.93040363 1.70026336-4.3865356-2.94045238-7.53817706-7.2310921-8.94343664-12.63373034zm43.47352646-7.1326695l5.84999642 1.59678476-3.6609619 13.89762753 15.89072954 4.31421367 3.6609853-13.89757228 5.84998082 1.59674793-8.82977376 33.39742678-5.84998082-1.59674793 3.72346932-14.08953906-15.89072954-4.31421366-3.7234899 14.08943917-5.84999817-1.59674058 8.8297727-33.39742633zm36.10184091 7.16381756l6.0538187.04205047-.05653203 34.62481625-6.0538705-.04203863.05658383-34.62482809zm80.22617243-31.13528512l2.989289-5.83669216 26.484894 4.46026255-18.97761553-19.40774099 2.33608518-4.56735389 26.68151581 4.29423875-19.00286186-19.1281048 2.89461366-5.67252227 25.4320401 26.7462826-2.376114 4.66695002-25.89172364-3.88406608 18.18782336 18.9975683-2.37602192 4.66691102-36.38192417-5.33573305zm21.22694954-51.67349099l.8374068-6.02149828 34.12097943 4.99041076-.83736854 6.02141111-34.1210177-4.99032359zm2.49855157-14.34424249l-.70662402-5.59513337 21.30805317-21.28857312-23.62647724 2.8708205-.7532255-5.94762907 34.16331863-4.16898439.6453311 5.0626568-21.92292345 21.92125379 24.30253912-2.97104685.75330556 5.94763861-34.16329737 4.1689971zm-6.34875906-36.74140626L211.5358045 81.30960328l4.82770068-2.41686676 8.73163005 17.56312246 8.0013755-3.98847127-7.74082941-15.5629376 4.82770918-2.41687037 7.74082942 15.5629376 8.27240218-4.12399675-8.84553447-17.7836615 4.82771022-2.41686792 11.5629031 23.23039151-30.75693501 15.36298314zM21.48828859 51.41716384l17.6503153-18.58138172 4.0023585 3.82702976L29.6554944 50.8743358l6.81617045 6.54428117 11.95442533-12.59110884 4.00237414 3.82706674L40.474 61.24559162l10.1683453 9.75729418-4.17478168 4.39474242-24.97927503-23.98046438zM52.09363056 23.8294309l5.09001775-3.25182416 18.60604443 29.24415894-5.08995644 3.25185253L52.09363056 23.8294309zm28.19047061 16.8507737l1.9993178-5.31404132c4.05814117 1.63180573 7.70313111 2.09424608 11.74885675.69109666 3.52594114-1.22449882 5.190049-3.64577612 4.29211116-6.20242444-.8088415-2.3460171-2.5496069-3.16000138-9.08678068-2.5009516-7.49407318.77478516-12.10793544.06076681-14.24266932-6.04629458-1.9442015-5.60868563 1.3377503-11.09365972 7.7930121-13.35185848 4.73948916-1.65563966 8.99629475-1.49366514 13.2311496.021935l-1.54719125 5.4120944c-3.68607188-1.18960338-7.0284895-1.325192-9.99990925-.29425076-3.34451158 1.1682514-4.69292911 3.5593351-3.9038275 5.81038086.88309445 2.5214718 2.76338612 3.13149465 9.50431193 2.46890536 7.464197-.70001392 11.88584908.52969299 13.81774297 6.06082818 2.14209713 6.12465269-1.37561336 11.44058703-8.20128844 13.7936745-4.98068479 1.71636425-10.28387527 1.60465932-15.40483587-.54909378zM113.95993088.76541545l6.04648529.02447836.0162399 14.3877909 16.42701853.0540684-.01621649-14.38773566 6.0464088.0245542.08760675 34.62578138-6.04646578-.02443231-.02089737-14.59264414-16.42705754-.05416047.0209342 14.59262853-6.04645166-.0245469-.08760463-34.62578229zm-7.8879355 110.38766375c-1.3578548.5750684-1.99666613 2.16926501-1.41736644 3.53711075l23.91473964 56.46761962c.57931529 1.36788256 2.16876137 2.01833014 3.52661617 1.44326173 1.3578548-.57506841 1.99666935-2.16921208 1.41735406-3.53709465l-23.91473964-56.46761962c-.59670325-1.36047511-2.16874898-2.01834625-3.52660379-1.44327784zm-29.4000083 35.70000603c-1.3578548.5750684-1.9966589 2.16925943-1.4173592 3.53710517l7.18186778 16.95786716c.57927629 1.36779048 2.16875322 2.01833358 3.52660802 1.44326518 1.3578548-.57506841 1.99664877-2.16931197 1.41737248-3.53710245l-7.18186779-16.95786716c-.5867288-1.38538741-2.16876648-2.0183363-3.52662129-1.4432679zm14.1-19.3c-1.3578548.5750684-1.9966557 2.16925808-1.41735602 3.53710382l16.75517482 39.56241433c.57931529 1.36788256 2.16875004 2.01833493 3.52660484 1.44326653 1.3578548-.57506841 1.99668776-2.16921989 1.41737247-3.53710245l-16.75517482-39.56241433c-.57929969-1.36784573-2.16876648-2.0183363-3.52662129-1.4432679zm7.60000649-8.10001032c-1.3578548.5750684-1.99667035 2.169261-1.41737066 3.53710673l20.26070894 47.83970148c.5792763 1.36779049 2.1687635 2.01832924 3.5266183 1.44326083 1.3578548-.5750684 1.99663955-2.16930806 1.41736326-3.53709855l-20.26070893-47.83970148c-.5792997-1.36784573-2.15135255-2.02570804-3.5266109-1.44326901zm19.29999079-6.99999611c-1.3578456.57506452-1.99666326 2.169258-1.41736357 3.53710374l19.44373983 45.91066938c.5792763 1.36779048 2.16876562 2.01832834 3.52661122 1.44326383 1.3578548-.5750684 1.99664876-2.16931196 1.41737247-3.53710245l-19.44373983-45.91066938c-.5792997-1.36784573-2.16876531-2.01833352-3.52662012-1.44326511zm11.20000182.2000043c-1.3578548.5750684-1.9966548 2.16926021-1.41735512 3.53710595l15.90107962 37.54571987c.5793153 1.36788257 2.16875004 2.01833494 3.52660484 1.44326653 1.3578548-.5750684 1.99668776-2.16921988 1.41737247-3.53710244l-15.90107962-37.54571988c-.5867288-1.38538741-2.15136383-2.02570907-3.5266222-1.44327004zm12.5000009 3.20000213c-1.3578548.5750684-1.9966642 2.16926168-1.41736452 3.53710742l9.78127947 23.09561286c.5793153 1.36788257 2.16875854 2.01833134 3.52661334 1.44326293 1.3578548-.5750684 1.99668777-2.16921988 1.41737248-3.53710244l-9.7887086-23.11315455c-.57929968-1.36784573-2.16133736-2.00079463-3.51919217-1.42572622zm11.20001012.19999824c-1.3578548.57506841-1.99667185 2.16925154-1.41737216 3.53709727l6.2534853 14.76576513c.57931528 1.36788257 2.16876136 2.01833014 3.52661616 1.44326173 1.3578548-.5750684 1.99666935-2.16921208 1.41735406-3.53709465l-6.2534853-14.76576513c-.57929968-1.36784573-2.16874326-2.01833276-3.52659806-1.44326435zm5.69998988-12.79999824c-1.3578456.5750645-1.99666208 2.16926078-1.4173624 3.53710652l13.71013299 32.37244418c.57931529 1.36788256 2.16876562 2.01832833 3.52661121 1.44326383 1.3578548-.57506841 1.99668777-2.16921988 1.41737248-3.53710245l-13.71013299-32.37244418c-.5867288-1.38538741-2.15135372-2.02571083-3.52662129-1.4432679zm6.2000083-11.60000603c-1.3578548.5750684-1.99666826 2.16926591-1.41736857 3.53711165l20.1270199 47.52403415c.57927629 1.36779048 2.1687635 2.01832924 3.5266183 1.44326083 1.3578548-.57506841 1.99663955-2.16930807 1.41736326-3.53709855l-20.1270199-47.52403415c-.57929969-1.36784573-2.16875818-2.01834235-3.52661299-1.44327394zm-80.90000739 45.20000817c-1.3578548.57506841-1.99666264 2.16924764-1.41736295 3.53709337l12.26931677 28.97038073c.5793153 1.36788257 2.16875216 2.01833404 3.52660697 1.44326563 1.3578548-.5750684 1.99668776-2.16921988 1.41737247-3.53710245l-12.26931677-28.97038073c-.5792997-1.36784573-2.15134892-2.02569948-3.52661649-1.44325655zm113.22687524-91.63061131c-4.78730353 2.02748262-10.35040204-.24917671-12.3928209-5.07174776-2.04240715-4.82254342.19344004-10.40220887 4.98074357-12.4296915 4.78734036-2.02749822 10.35038515.24923942 12.3927923 5.07178285 2.0250153 4.82994167-.19337461 10.40215819-4.98071497 12.4296564zm-5.47364619-12.92440459c-2.29790459.97319119-3.36592807 3.6384771-2.38556904 5.95330642.98036682 2.31484773 3.63773429 3.40232991 5.93563888 2.42913872 2.29789538-.97318729 3.36596598-3.63843886 2.38559915-5.95328659-.99776257-2.3074587-3.65517716-3.39497522-5.93566899-2.42915855zM20.09886323 120.02247606c-4.78730353 2.02748262-10.3504031-.24917626-12.39282196-5.0717473-2.04240715-4.82254343.1934411-10.40220933 4.98074463-12.42969196 4.78734036-2.02749822 10.35038515.24923942 12.3927923 5.07178285 2.04241886 4.82257105-.19337461 10.40215819-4.98071497 12.4296564zm-5.47364619-12.92440459c-2.29790459.97319119-3.36592807 3.6384771-2.38556904 5.95330642.98036682 2.31484773 3.63773429 3.40232991 5.93563888 2.42913872 2.29789538-.97318729 3.36596598-3.63843886 2.38559915-5.95328659-.98035902-2.31482931-3.63777361-3.40234584-5.93566899-2.42915855zM192.9914444 246.20498432c-4.78730353 2.02748262-10.3504297-.24927359-12.38539994-5.05425692-2.03498193-4.80501095.19342734-10.40220729 4.98073087-12.4296899 4.78734957-2.02750213 10.35039572.24923872 12.39280288 5.07178215 2.04241885 4.82257105-.20078424 10.38466255-4.98813381 12.41216467zm-5.47366569-12.92445063c-2.29790459.9731912-3.36590575 3.63847851-2.38555062 5.95329862.98034732 2.31480169 3.63028675 3.38479604 5.92819134 2.41160485 2.29790459-.9731912 3.36597519-3.63844276 2.39303749-5.93574882-.99775868-2.30744948-3.65517717-3.39497522-5.9356782-2.42915465z"/>
</svg>