<svg xmlns="http://www.w3.org/2000/svg" viewBox="0 0 26 157">
    <path fill="#79C71E" d="M12 0l.00000446 102 2-9e-8L14-9e-8 12 0z"/>
    <path fill="#79C71E" fill-rule="evenodd"
          d="M24 144v-16c0-6.07513-4.9249-11-11-11-6.07513 0-11 4.92487-11 11v16c0 6.0751 4.92487 11 11 11 6.0751 0 11-4.9249 11-11zm-11-29c-7.1797 0-13 5.8203-13 13v16c0 7.1797 5.8203 13 13 13s13-5.8203 13-13v-16c0-7.1797-5.8203-13-13-13z"/>
    <path fill="#79C71E" fill-rule="evenodd" d="M12 130.43684V122.7h2v7.73684h-2z"/>
</svg>