<svg xmlns="http://www.w3.org/2000/svg" viewBox="0 0 23 26">
    <path fill="#7BB43A" d="M17.08 10.4L17.08000135.0001l1.69231 2.2e-7-.00000135 10.3999L17.08 10.4z"/>
    <g transform="translate(-9976 10408)">
        <mask id="a">
            <path fill="#fff"
                  d="M17.3331 4.65385c0 2.57025-3.8801 4.65384-8.66654 4.65384C3.88015 9.30769 0 7.2241 0 4.65385 0 2.0836 3.88015 0 8.66656 0 13.453 0 17.3331 2.0836 17.3331 4.65385z"
                  transform="rotate(-90 -196.155 -10185.845)"/>
        </mask>
        <g mask="url(#a)">
            <path fill="#7BB43A"
                  d="M9994.343852-10397.33309938c.19399 2e-8.82696997.1777001 1.5287398 1.4845002.65733984 1.22420008 1.1250996 3.05270015 1.12509933 5.18204015l4.00001 5.2e-7c3.4e-7-2.65714-.57399933-5.16184007-1.60105908-7.0743402-.98259976-1.82990014-2.67652953-3.59220036-5.05278953-3.59220067l-5.3e-7 4zm2.65383913 6.66654035c-2.8e-7 2.12931-.46776052 3.95786993-1.12510068 5.18198985-.70177017 1.3068599-1.33475019 1.48456982-1.52874019 1.4845698l-5.2e-7 4c2.37626 3e-7 4.07019023-1.76236547 5.05279047-3.59218934 1.02706025-1.91255986 1.60106057-4.41727979 1.60106092-7.07436979l-4.00001-5.2e-7zm-2.65384087 6.66655965c-.19399-3e-8-.82697998-.17771011-1.5287498-1.4845702-.65733985-1.2241201-1.1250996-3.05268016-1.12509933-5.18199016l-4-5.2e-7c-3.5e-7 2.65709.57403933 5.16181007 1.60105508 7.0743702.98259476 1.82982414 2.67653353 3.59219036 5.05279353 3.59219068l5.2e-7-4zm-2.65384913-6.66656036c2.7e-7-2.12934.46776051-3.95783993 1.12510067-5.18203985.70177017-1.3067999 1.3347602-1.48449982 1.5287502-1.4844998l5.2e-7-4c-2.37626-3e-7-4.07019923 1.76229947-5.05279447 3.59219934-1.02701625 1.91249986-1.60105658 4.41719979-1.60105692 7.07433979l4 5.2e-7z"/>
        </g>
    </g>
    <path fill="#7BB43A" d="M3.54 26l.00000121-9.2257 1.69231 2.2e-7-.00000121 9.2257L3.54 26z"/>
    <path fill="#7BB43A"
          d="M6.7692322.02600075l-.00000207 15.774 2 2.7e-7.00000208-15.774-2-2.7e-7zM2.00000014 15.80378613l.00000208-15.777786-2-2.6e-7L1.3e-7 15.80378587l2 2.6e-7zm4.76923-.00378538l-2.38461-3e-7-2.6e-7 2 2.38461 3e-7 2.6e-7-2zm-2.38461-3e-7l-2.38462-3.2e-7-2.6e-7 2 2.38462 3.1e-7 2.6e-7-2zM5.38462 16.80000056l.0000022-16.774-2-2.6e-7-.0000022 16.774 2 2.6e-7zm1.38461013-.99999982l-2.6e-7 2c1.10457 1.5e-7 2.00000012-.89543073 2.00000026-1.99999973l-2-2.7e-7zm-6.76923.00378512C0 16.91329287.90038217 17.79999999 1.99999987 17.80000013l2.6e-7-2c-.001004 0-.001664-.00005-.00202-.00009-.00036-.00003-.000526-.00007-.000535-.00007-.000012 0 .000055.00001.000178.00005.000119.00004.000244.00008.000363.000134.000449.000188.000385.000243.000158.000017-.000214-.000211.00034.000239.001029.001863.000361.000852.000628.001734.000779.002472.000168.000795.000048.000717.000048-.00059l-2-2.6e-7z"/>
</svg>