<svg xmlns="http://www.w3.org/2000/svg" viewBox="0 0 216 23">
    <path fill="#7BB43A" d="M18 11h12v2H18v-2z"/>
    <g transform="translate(-17124 11682)">
        <mask id="a">
            <path fill="#fff"
                  d="M20 5.5c0 3.03757-4.4772 5.5-10 5.5C4.47715 11 0 8.53757 0 5.5S4.47715 0 10 0c5.5228 0 10 2.46243 10 5.5z"
                  transform="translate(17124 -11675)"/>
        </mask>
        <g mask="url(#a)">
            <path fill="#7BB43A"
                  d="M17142-11669.5c0 .45233-.3591 1.29313-1.8928 2.13666-1.4616.80392-3.6171 1.36334-6.1072 1.36334v4c3.0327 0 5.8773-.6718 8.0349-1.8585 2.0856-1.14706 3.9651-3.05627 3.9651-5.6415h-4zm-8 3.5c-2.49014 0-4.64556-.55942-6.10723-1.36334-1.53368-.84353-1.89277-1.68433-1.89277-2.13666h-4c0 2.58523 1.879488 4.49444 3.96509 5.6415 2.15762 1.1867 5.0022 1.8585 8.03491 1.8585v-4zm-8-3.5c0-.45233.35909-1.29313 1.89277-2.13666 1.46167-.80392 3.61709-1.36334 6.10723-1.36334v-4c-3.03271 0-5.87729.67179-8.03491 1.858481-2.085602 1.147079-3.96509 3.056289-3.96509 5.641519h4zm8-3.5c2.4901 0 4.6456.55942 6.1072 1.36334 1.5337.84353 1.8928 1.68433 1.8928 2.13666h4c0-2.58523-1.8795-4.49444-3.9651-5.641519-2.1576-1.186691-5.0022-1.858481-8.0349-1.858481v4z"/>
        </g>
    </g>
    <path fill="#7BB43A" d="M185 11h11v2h-11v-2z"/>
    <path fill="#7BB43A"
          d="M216 15h-19v2h19v-2zm-19.00208-6H216V7h-19.00208v2zM197 15v-3h-2v3h2zm0-3V9h-2v3h2zm-1 1h20v-2h-20v2zm1 2h-2c0 1.10457.895431 2 2 2v-2zm-.00208-8C195.890639 7 195 7.898146 195 9h2c0-.001633.00015-.002153.00009-.001881-.00004.000215-.000142.000567-.000288.000913-.000241.000574-.000276.000402.000175-.00005.000443-.000445.000333-.000137-.000886.000379-.000659.00028-.00137.000496-.001973.00062-.00066.000139-.000508.000019.000802.000019V7zm-98.64592032 7.29599918l1.8e-7-4.152-5.352-2.3e-7 8e-8-1.728 12 5.3e-7-8e-8 1.728-5.088-2.3e-7-1.8e-7 4.152 5.088 2.3e-7-7e-8 1.728-12-5.3e-7 7e-8-1.728 5.352 2.3e-7z"/>
    <path fill="#FFF"
          d="M40.616 10.008v-1.56h.432c.24 0 .536-.008.888-.024s.632-.048.84-.096c.64-.16 1.184-.488 1.632-.984.464-.512.696-1.152.696-1.92 0-1.056-.256-1.792-.768-2.208-.512-.432-1.16-.648-1.944-.648-.624 0-1.176.056-1.656.168-.48.112-.872.256-1.176.432l-.48-1.464c.288-.176.76-.352 1.416-.528C41.168 1 41.92.912 42.752.912c.544 0 1.072.064 1.584.192s.96.352 1.344.672c.4.304.72.728.96 1.272.24.528.36 1.192.36 1.992 0 .816-.208 1.584-.624 2.304-.4.704-1.024 1.232-1.872 1.584v.096c.896.176 1.6.608 2.112 1.296.528.672.792 1.584.792 2.736 0 .928-.144 1.72-.432 2.376-.272.656-.648 1.2-1.128 1.632-.464.416-1.008.728-1.632.936-.624.192-1.272.288-1.944.288-.848 0-1.56-.056-2.136-.168-.56-.112-1.024-.264-1.392-.456l.48-1.632c.32.176.736.32 1.248.432.512.112 1.136.168 1.872.168.432 0 .84-.072 1.224-.216.384-.16.72-.384 1.008-.672.288-.288.512-.648.672-1.08.176-.448.264-.96.264-1.536 0-1.04-.28-1.792-.84-2.256-.544-.48-1.28-.76-2.208-.84-.16-.016-.304-.024-.432-.024h-1.416zm9.0863-3.288c.4639-.288 1.0239-.512 1.6799-.672.672-.16 1.376-.24 2.112-.24.672 0 1.2081.104 1.6081.312.416.192.7359.464.96.816.2399.336.392.728.4559 1.176.08.432.12.888.12 1.368 0 .96-.0239 1.896-.0719 2.808-.032.912-.0481 1.776-.0481 2.592 0 .608.0161 1.176.0481 1.704.048.512.128 1 .2399 1.464h-1.32l-.408-1.416h-.096c-.24.416-.5919.776-1.0559 1.08-.464.304-1.0881.456-1.8721.456-.864 0-1.5759-.296-2.1359-.888-.544-.608-.8161-1.44-.8161-2.496 0-.688.112-1.264.3361-1.728.2399-.464.568-.84.9839-1.128.432-.288.9361-.488 1.512-.6.5921-.128 1.2481-.192 1.9681-.192h.4799c.1601 0 .3281.008.5041.024.048-.496.072-.936.072-1.32 0-.912-.1361-1.552-.408-1.92-.2721-.368-.768-.552-1.488-.552-.448 0-.936.072-1.464.216-.528.128-.9681.296-1.32.504l-.576-1.368zm5.2079 5.808c-.1599-.016-.3199-.024-.48-.024-.16-.016-.32-.024-.4799-.024-.384 0-.76.032-1.128.096-.3681.064-.696.176-.984.336-.2881.16-.5201.376-.696.648-.1601.272-.24.616-.24 1.032 0 .64.1519 1.136.456 1.488.3199.352.728.528 1.2239.528.6721 0 1.1921-.16 1.56-.48.3681-.32.624-.672.768-1.056v-2.544zm5.5534-4.488c.416-.752.88-1.272 1.392-1.56.512-.288 1.152-.432 1.92-.432 1.184 0 2.096.464 2.736 1.392.656.928.984 2.36.984 4.296 0 2.224-.376 3.872-1.128 4.944-.752 1.072-1.8 1.608-3.144 1.608-.72 0-1.352-.136-1.896-.408-.528-.288-.976-.728-1.344-1.32-.352-.608-.624-1.392-.816-2.352-.176-.96-.264-2.12-.264-3.48 0-1.376.056-2.552.168-3.528.128-.976.296-1.8.504-2.472.224-.672.488-1.208.792-1.608.304-.4.648-.712 1.032-.936.384-.24.8-.408 1.248-.504.464-.096.952-.176 1.464-.24.672-.08 1.208-.176 1.608-.288.4-.112.72-.304.96-.576l.12 1.704c-.128.128-.272.24-.432.336-.16.08-.352.152-.576.216-.224.064-.488.12-.792.168-.288.032-.632.064-1.032.096-.544.048-1.024.152-1.44.312-.4.16-.752.424-1.056.792-.288.352-.52.84-.696 1.464-.176.624-.296 1.416-.36 2.376h.048zm.24 3.984c0 .656.048 1.272.144 1.848.096.56.248 1.056.456 1.488.208.416.464.752.768 1.008.32.24.696.36 1.128.36.832 0 1.456-.392 1.872-1.176.416-.784.624-2 .624-3.648 0-1.312-.176-2.352-.528-3.12-.352-.784-.928-1.176-1.728-1.176-.944 0-1.64.384-2.088 1.152-.432.768-.648 1.856-.648 3.264zM69.791 6h1.224l.264 1.296h.096c.592-1.056 1.52-1.584 2.784-1.584 1.264 0 2.208.472 2.832 1.416.64.944.96 2.488.96 4.632 0 1.008-.104 1.92-.312 2.736-.208.8-.504 1.488-.888 2.064-.384.56-.856.992-1.416 1.296-.544.288-1.152.432-1.824.432-.464 0-.832-.032-1.104-.096-.272-.048-.568-.16-.888-.336V22.8h-1.728V6zm1.728 10.104c.224.192.472.344.744.456.288.112.664.168 1.128.168.848 0 1.52-.432 2.016-1.296.496-.864.744-2.096.744-3.696 0-.672-.048-1.28-.144-1.824-.08-.544-.216-1.008-.408-1.392-.192-.4-.44-.704-.744-.912-.288-.224-.648-.336-1.08-.336-1.168 0-1.92.712-2.256 2.136v6.696zM79.6927 12c0-2.16.368-3.744 1.104-4.752.752-1.024 1.816-1.536 3.192-1.536 1.472 0 2.552.52 3.24 1.56.704 1.04 1.056 2.616 1.056 4.728 0 2.176-.376 3.768-1.128 4.776-.752 1.008-1.808 1.512-3.168 1.512-1.472 0-2.56-.52-3.264-1.56-.688-1.04-1.032-2.616-1.032-4.728zm1.8 0c0 .704.04 1.344.12 1.92.096.576.24 1.072.432 1.488.208.416.472.744.792.984.32.224.704.336 1.152.336.832 0 1.456-.368 1.872-1.104.416-.752.624-1.96.624-3.624 0-.688-.048-1.32-.144-1.896-.08-.592-.224-1.096-.432-1.512-.192-.416-.448-.736-.768-.96-.32-.24-.704-.36-1.152-.36-.816 0-1.44.376-1.872 1.128-.416.752-.624 1.952-.624 3.6zm35.4071-.912l.144-1.824h-.096l-.84 2.016-4.056 6.72h-1.128V6h1.728v7.128l-.144 1.752h.096l.792-1.968L117.4998 6h1.128v12h-1.728v-6.912zM121.4707 6h1.224l.264 1.296h.096c.592-1.056 1.52-1.584 2.784-1.584 1.264 0 2.208.472 2.832 1.416.64.944.96 2.488.96 4.632 0 1.008-.104 1.92-.312 2.736-.208.8-.504 1.488-.888 2.064-.384.56-.856.992-1.416 1.296-.544.288-1.152.432-1.824.432-.464 0-.832-.032-1.104-.096-.272-.048-.568-.16-.888-.336V22.8h-1.728V6zm1.728 10.104c.224.192.472.344.744.456.288.112.664.168 1.128.168.848 0 1.52-.432 2.016-1.296.496-.864.744-2.096.744-3.696 0-.672-.048-1.28-.144-1.824-.08-.544-.216-1.008-.408-1.392-.192-.4-.44-.704-.744-.912-.288-.224-.648-.336-1.08-.336-1.168 0-1.92.712-2.256 2.136v6.696zM131.3724 12c0-2.16.368-3.744 1.104-4.752.752-1.024 1.816-1.536 3.192-1.536 1.472 0 2.5516.52 3.2396 1.56.704 1.04 1.056 2.616 1.056 4.728 0 2.176-.376 3.768-1.128 4.776-.752 1.008-1.8076 1.512-3.1676 1.512-1.472 0-2.56-.52-3.264-1.56-.688-1.04-1.032-2.616-1.032-4.728zm1.8 0c0 .704.04 1.344.12 1.92.096.576.24 1.072.432 1.488.208.416.472.744.792.984.32.224.704.336 1.152.336.832 0 1.456-.368 1.872-1.104.416-.752.6236-1.96.6236-3.624 0-.688-.048-1.32-.144-1.896-.0796-.592-.2236-1.096-.4316-1.512-.192-.416-.448-.736-.768-.96-.32-.24-.704-.36-1.152-.36-.816 0-1.44.376-1.872 1.128-.416.752-.624 1.952-.624 3.6zm9.0876-5.976c.448-.032.936-.072 1.464-.12.528-.048 1.16-.072 1.896-.072 1.296 0 2.224.248 2.784.744.56.48.84 1.216.84 2.208 0 .56-.136 1.104-.408 1.632-.256.528-.696.928-1.32 1.2v.096c.768.176 1.312.504 1.632.984.32.464.48 1.104.48 1.92 0 1.248-.368 2.152-1.104 2.712-.736.56-1.832.84-3.288.84-.544 0-1.064-.024-1.56-.072-.496-.032-.968-.072-1.416-.12V6.024zm1.728 10.488c.24.032.464.056.672.072.224.016.496.024.816.024.816 0 1.408-.168 1.776-.504.384-.336.576-.88.576-1.632 0-.576-.16-1.048-.48-1.416-.32-.384-.904-.576-1.752-.576h-1.608v4.032zm1.776-5.4c.224 0 .44-.048.648-.144.208-.112.392-.256.552-.432.176-.176.312-.376.408-.6.096-.24.144-.488.144-.744 0-.624-.152-1.08-.456-1.368-.288-.288-.792-.432-1.512-.432-.384 0-.688.008-.912.024-.224.016-.44.032-.648.048v3.648h1.776zm6.055-4.392c.464-.288 1.024-.512 1.68-.672.672-.16 1.376-.24 2.112-.24.672 0 1.208.104 1.608.312.416.192.736.464.96.816.24.336.392.728.456 1.176.08.432.12.888.12 1.368 0 .96-.024 1.896-.072 2.808-.032.912-.048 1.776-.048 2.592 0 .608.016 1.176.048 1.704.048.512.128 1 .24 1.464h-1.32l-.408-1.416h-.096c-.24.416-.592.776-1.056 1.08-.464.304-1.088.456-1.872.456-.864 0-1.576-.296-2.136-.888-.544-.608-.816-1.44-.816-2.496 0-.688.112-1.264.336-1.728.24-.464.568-.84.984-1.128.432-.288.936-.488 1.512-.6.592-.128 1.248-.192 1.968-.192h.48c.16 0 .328.008.504.024.048-.496.072-.936.072-1.32 0-.912-.136-1.552-.408-1.92-.272-.368-.768-.552-1.488-.552-.448 0-.936.072-1.464.216-.528.128-.968.296-1.32.504l-.576-1.368zm5.208 5.808c-.16-.016-.32-.024-.48-.024-.16-.016-.32-.024-.48-.024-.384 0-.76.032-1.128.096-.368.064-.696.176-.984.336-.288.16-.52.376-.696.648-.16.272-.24.616-.24 1.032 0 .64.152 1.136.456 1.488.32.352.728.528 1.224.528.672 0 1.192-.16 1.56-.48.368-.32.624-.672.768-1.056v-2.544zm10.762-4.968h-2.952V18h-1.728V7.56h-2.952V6h7.632v1.56zm3.175 8.88c.48.096.92.144 1.32.144 1.504 0 2.256-.792 2.256-2.376 0-.72-.176-1.28-.528-1.68-.352-.416-.912-.624-1.68-.624-.208 0-.432.016-.672.048-.24.016-.472.056-.696.12v4.368zm0-5.856c.32-.064.624-.104.912-.12.288-.032.56-.048.816-.048.672 0 1.24.096 1.704.288.464.176.84.424 1.128.744.288.32.496.704.624 1.152.128.432.192.896.192 1.392 0 1.456-.352 2.512-1.056 3.168-.704.656-1.808.984-3.312.984-.944 0-1.856-.048-2.736-.144V6h1.728v4.584z"/>
</svg>