<?xml version="1.0" encoding="UTF-8" standalone="no"?>
<svg
        xmlns:dc="http://purl.org/dc/elements/1.1/"
        xmlns:cc="http://creativecommons.org/ns#"
        xmlns:rdf="http://www.w3.org/1999/02/22-rdf-syntax-ns#"
        xmlns:svg="http://www.w3.org/2000/svg"
        xmlns="http://www.w3.org/2000/svg"
        xmlns:xlink="http://www.w3.org/1999/xlink"
        id="svg2"
        version="1.1"
        viewBox="0 0 216 23">
    <metadata
            id="metadata45">
        <rdf:RDF>
            <cc:Work
                    rdf:about="">
                <dc:format>image/svg+xml</dc:format>
                <dc:type
                        rdf:resource="http://purl.org/dc/dcmitype/StillImage"/>
                <dc:title>Group 4</dc:title>
            </cc:Work>
        </rdf:RDF>
    </metadata>
    <title
            id="title4">Group 4
    </title>
    <desc
            id="desc6">Created using Figma
    </desc>
    <g
            transform="translate(-13010 10889)"
            id="Canvas">
        <g
                id="Group 4">
            <g
                    id="Rectangle">
                <use
                        fill="#7BB43A"
                        id="use11"
                        transform="translate(13028 -10878)"
                        xlink:href="#path0_fill"/>
            </g>
            <g
                    id="Ellipse">
                <mask
                        id="mask0_outline_ins">
                    <use
                            fill="white"
                            id="use15"
                            transform="translate(13010 -10882)"
                            xlink:href="#path1_fill"/>
                </mask>
                <g
                        id="g17"
                        mask="url(#mask0_outline_ins)">
                    <use
                            fill="#7BB43A"
                            id="use19"
                            transform="translate(13010 -10882)"
                            xlink:href="#path2_stroke_2x"/>
                </g>
            </g>
            <g
                    id="g21">
                <use
                        fill="#7BB43A"
                        id="use23"
                        transform="translate(13195 -10878)"
                        xlink:href="#path3_fill"/>
            </g>
            <g
                    id="Rectangle 2">
                <use
                        fill="#7BB43A"
                        id="use26"
                        transform="translate(13206 -10881)"
                        xlink:href="#path4_stroke"/>
            </g>
            <g
                    id="н">
                <use
                        fill="#7BB43A"
                        id="use29"
                        transform="matrix(-4.37114e-08 1 -1 -4.37114e-08 13127 -10882)"
                        xlink:href="#path5_fill"/>
            </g>
            <g
                    id="Забро ировать">
                <use
                        fill="#171717"
                        id="use32"
                        transform="translate(13048 -10895)"
                        xlink:href="#path6_fill"/>
            </g>
        </g>
    </g>
    <defs
            id="defs34">
        <path
                d="M 0 0L 12 0L 12 2L 0 2L 0 0Z"
                id="path0_fill"/>
        <path
                d="M 20 5.5C 20 8.53757 15.5228 11 10 11C 4.47715 11 0 8.53757 0 5.5C 0 2.46243 4.47715 0 10 0C 15.5228 0 20 2.46243 20 5.5Z"
                id="path1_fill"/>
        <path
                d="M 18 5.5C 18 5.95233 17.6409 6.79313 16.1072 7.63666C 14.6456 8.44058 12.4901 9 10 9L 10 13C 13.0327 13 15.8773 12.3282 18.0349 11.1415C 20.1205 9.99444 22 8.08523 22 5.5L 18 5.5ZM 10 9C 7.50986 9 5.35444 8.44058 3.89277 7.63666C 2.35909 6.79313 2 5.95233 2 5.5L -2 5.5C -2 8.08523 -0.120512 9.99444 1.96509 11.1415C 4.12271 12.3282 6.96729 13 10 13L 10 9ZM 2 5.5C 2 5.04767 2.35909 4.20687 3.89277 3.36334C 5.35444 2.55942 7.50986 2 10 2L 10 -2C 6.96729 -2 4.12271 -1.32821 1.96509 -0.141519C -0.120512 1.00556 -2 2.91477 -2 5.5L 2 5.5ZM 10 2C 12.4901 2 14.6456 2.55942 16.1072 3.36334C 17.6409 4.20687 18 5.04767 18 5.5L 22 5.5C 22 2.91477 20.1205 1.00556 18.0349 -0.141519C 15.8773 -1.32821 13.0327 -2 10 -2L 10 2Z"
                id="path2_stroke_2x"/>
        <path
                d="M 0 0L 11 0L 11 2L 0 2L 0 0Z"
                id="path3_fill"/>
        <path
                d="M 20 7L 1 7L 1 9L 20 9L 20 7ZM 0.99792 1L 20 1L 20 -1L 0.99792 -1L 0.99792 1ZM 1 7L 1 4L -1 4L -1 7L 1 7ZM 1 4L 1 1L -1 1L -1 4L 1 4ZM 0 5L 20 5L 20 3L 0 3L 0 5ZM 1 7L 1 7L -1 7C -1 8.10457 -0.104569 9 1 9L 1 7ZM 0.99792 -1C -0.109361 -1 -1 -0.101854 -1 1L 1 1C 1 0.998367 1.00015 0.997847 1.00009 0.998119C 1.00005 0.998334 0.999948 0.998686 0.999802 0.999032C 0.999561 0.999606 0.999526 0.999434 0.999977 0.998982C 1.00042 0.998537 1.00031 0.998845 0.999091 0.999361C 0.998432 0.999641 0.997721 0.999857 0.997118 0.999981C 0.996458 1.00012 0.99661 1 0.99792 1L 0.99792 -1Z"
                id="path4_stroke"/>
        <path
                d="M 7.296 18.648L 3.144 18.648L 3.144 24L 1.416 24L 1.416 12L 3.144 12L 3.144 17.088L 7.296 17.088L 7.296 12L 9.024 12L 9.024 24L 7.296 24L 7.296 18.648Z"
                id="path5_fill"/>
        <path
                d="M 2.616 16.008L 2.616 14.448L 3.048 14.448C 3.288 14.448 3.584 14.44 3.936 14.424C 4.288 14.408 4.568 14.376 4.776 14.328C 5.416 14.168 5.96 13.84 6.408 13.344C 6.872 12.832 7.104 12.192 7.104 11.424C 7.104 10.368 6.848 9.632 6.336 9.216C 5.824 8.784 5.176 8.568 4.392 8.568C 3.768 8.568 3.216 8.624 2.736 8.736C 2.256 8.848 1.864 8.992 1.56 9.168L 1.08 7.704C 1.368 7.528 1.84 7.352 2.496 7.176C 3.168 7 3.92 6.912 4.752 6.912C 5.296 6.912 5.824 6.976 6.336 7.104C 6.848 7.232 7.296 7.456 7.68 7.776C 8.08 8.08 8.4 8.504 8.64 9.048C 8.88 9.576 9 10.24 9 11.04C 9 11.856 8.792 12.624 8.376 13.344C 7.976 14.048 7.352 14.576 6.504 14.928L 6.504 15.024C 7.4 15.2 8.104 15.632 8.616 16.32C 9.144 16.992 9.408 17.904 9.408 19.056C 9.408 19.984 9.264 20.776 8.976 21.432C 8.704 22.088 8.328 22.632 7.848 23.064C 7.384 23.48 6.84 23.792 6.216 24C 5.592 24.192 4.944 24.288 4.272 24.288C 3.424 24.288 2.712 24.232 2.136 24.12C 1.576 24.008 1.112 23.856 0.744 23.664L 1.224 22.032C 1.544 22.208 1.96 22.352 2.472 22.464C 2.984 22.576 3.608 22.632 4.344 22.632C 4.776 22.632 5.184 22.56 5.568 22.416C 5.952 22.256 6.288 22.032 6.576 21.744C 6.864 21.456 7.088 21.096 7.248 20.664C 7.424 20.216 7.512 19.704 7.512 19.128C 7.512 18.088 7.232 17.336 6.672 16.872C 6.128 16.392 5.392 16.112 4.464 16.032C 4.304 16.016 4.16 16.008 4.032 16.008C 3.92 16.008 3.776 16.008 3.6 16.008L 2.616 16.008ZM 11.7023 12.72C 12.1662 12.432 12.7262 12.208 13.3822 12.048C 14.0542 11.888 14.7582 11.808 15.4942 11.808C 16.1662 11.808 16.7023 11.912 17.1023 12.12C 17.5183 12.312 17.8382 12.584 18.0623 12.936C 18.3022 13.272 18.4543 13.664 18.5182 14.112C 18.5982 14.544 18.6382 15 18.6382 15.48C 18.6382 16.44 18.6143 17.376 18.5663 18.288C 18.5343 19.2 18.5182 20.064 18.5182 20.88C 18.5182 21.488 18.5343 22.056 18.5663 22.584C 18.6143 23.096 18.6943 23.584 18.8062 24.048L 17.4862 24.048L 17.0782 22.632L 16.9822 22.632C 16.7422 23.048 16.3903 23.408 15.9263 23.712C 15.4623 24.016 14.8382 24.168 14.0542 24.168C 13.1902 24.168 12.4783 23.872 11.9183 23.28C 11.3743 22.672 11.1022 21.84 11.1022 20.784C 11.1022 20.096 11.2142 19.52 11.4383 19.056C 11.6782 18.592 12.0063 18.216 12.4222 17.928C 12.8542 17.64 13.3583 17.44 13.9342 17.328C 14.5263 17.2 15.1823 17.136 15.9023 17.136C 16.0622 17.136 16.2223 17.136 16.3822 17.136C 16.5423 17.136 16.7103 17.144 16.8863 17.16C 16.9343 16.664 16.9583 16.224 16.9583 15.84C 16.9583 14.928 16.8222 14.288 16.5503 13.92C 16.2782 13.552 15.7823 13.368 15.0623 13.368C 14.6143 13.368 14.1263 13.44 13.5983 13.584C 13.0703 13.712 12.6302 13.88 12.2783 14.088L 11.7023 12.72ZM 16.9102 18.528C 16.7503 18.512 16.5903 18.504 16.4302 18.504C 16.2702 18.488 16.1102 18.48 15.9503 18.48C 15.5663 18.48 15.1903 18.512 14.8223 18.576C 14.4542 18.64 14.1263 18.752 13.8383 18.912C 13.5502 19.072 13.3182 19.288 13.1423 19.56C 12.9822 19.832 12.9023 20.176 12.9023 20.592C 12.9023 21.232 13.0542 21.728 13.3583 22.08C 13.6782 22.432 14.0863 22.608 14.5822 22.608C 15.2543 22.608 15.7743 22.448 16.1422 22.128C 16.5103 21.808 16.7662 21.456 16.9102 21.072L 16.9102 18.528ZM 22.4636 14.04C 22.8796 13.288 23.3436 12.768 23.8556 12.48C 24.3676 12.192 25.0076 12.048 25.7756 12.048C 26.9596 12.048 27.8716 12.512 28.5116 13.44C 29.1676 14.368 29.4956 15.8 29.4956 17.736C 29.4956 19.96 29.1196 21.608 28.3676 22.68C 27.6156 23.752 26.5676 24.288 25.2236 24.288C 24.5036 24.288 23.8716 24.152 23.3276 23.88C 22.7996 23.592 22.3516 23.152 21.9836 22.56C 21.6316 21.952 21.3596 21.168 21.1676 20.208C 20.9916 19.248 20.9036 18.088 20.9036 16.728C 20.9036 15.352 20.9596 14.176 21.0716 13.2C 21.1996 12.224 21.3676 11.4 21.5756 10.728C 21.7996 10.056 22.0636 9.52 22.3676 9.12C 22.6716 8.72 23.0156 8.408 23.3996 8.184C 23.7836 7.944 24.1996 7.776 24.6476 7.68C 25.1116 7.584 25.5996 7.504 26.1116 7.44C 26.7836 7.36 27.3196 7.264 27.7196 7.152C 28.1196 7.04 28.4396 6.848 28.6796 6.576L 28.7996 8.28C 28.6716 8.408 28.5276 8.52 28.3676 8.616C 28.2076 8.696 28.0156 8.768 27.7916 8.832C 27.5676 8.896 27.3036 8.952 26.9996 9C 26.7116 9.032 26.3676 9.064 25.9676 9.096C 25.4236 9.144 24.9436 9.248 24.5276 9.408C 24.1276 9.568 23.7756 9.832 23.4716 10.2C 23.1836 10.552 22.9516 11.04 22.7756 11.664C 22.5996 12.288 22.4796 13.08 22.4156 14.04L 22.4636 14.04ZM 22.7036 18.024C 22.7036 18.68 22.7516 19.296 22.8476 19.872C 22.9436 20.432 23.0956 20.928 23.3036 21.36C 23.5116 21.776 23.7676 22.112 24.0716 22.368C 24.3916 22.608 24.7676 22.728 25.1996 22.728C 26.0316 22.728 26.6556 22.336 27.0716 21.552C 27.4876 20.768 27.6956 19.552 27.6956 17.904C 27.6956 16.592 27.5196 15.552 27.1676 14.784C 26.8156 14 26.2396 13.608 25.4396 13.608C 24.4956 13.608 23.7996 13.992 23.3516 14.76C 22.9196 15.528 22.7036 16.616 22.7036 18.024ZM 31.791 12L 33.015 12L 33.279 13.296L 33.375 13.296C 33.967 12.24 34.895 11.712 36.159 11.712C 37.423 11.712 38.367 12.184 38.991 13.128C 39.631 14.072 39.951 15.616 39.951 17.76C 39.951 18.768 39.847 19.68 39.639 20.496C 39.431 21.296 39.135 21.984 38.751 22.56C 38.367 23.12 37.895 23.552 37.335 23.856C 36.791 24.144 36.183 24.288 35.511 24.288C 35.047 24.288 34.679 24.256 34.407 24.192C 34.135 24.144 33.839 24.032 33.519 23.856L 33.519 28.8L 31.791 28.8L 31.791 12ZM 33.519 22.104C 33.743 22.296 33.991 22.448 34.263 22.56C 34.551 22.672 34.927 22.728 35.391 22.728C 36.239 22.728 36.911 22.296 37.407 21.432C 37.903 20.568 38.151 19.336 38.151 17.736C 38.151 17.064 38.103 16.456 38.007 15.912C 37.927 15.368 37.791 14.904 37.599 14.52C 37.407 14.12 37.159 13.816 36.855 13.608C 36.567 13.384 36.207 13.272 35.775 13.272C 34.607 13.272 33.855 13.984 33.519 15.408L 33.519 22.104ZM 41.6927 18C 41.6927 15.84 42.0607 14.256 42.7967 13.248C 43.5487 12.224 44.6127 11.712 45.9887 11.712C 47.4607 11.712 48.5407 12.232 49.2287 13.272C 49.9327 14.312 50.2847 15.888 50.2847 18C 50.2847 20.176 49.9087 21.768 49.1567 22.776C 48.4047 23.784 47.3487 24.288 45.9887 24.288C 44.5167 24.288 43.4287 23.768 42.7247 22.728C 42.0367 21.688 41.6927 20.112 41.6927 18ZM 43.4927 18C 43.4927 18.704 43.5327 19.344 43.6127 19.92C 43.7087 20.496 43.8527 20.992 44.0447 21.408C 44.2527 21.824 44.5167 22.152 44.8367 22.392C 45.1567 22.616 45.5407 22.728 45.9887 22.728C 46.8207 22.728 47.4447 22.36 47.8607 21.624C 48.2767 20.872 48.4847 19.664 48.4847 18C 48.4847 17.312 48.4367 16.68 48.3407 16.104C 48.2607 15.512 48.1167 15.008 47.9087 14.592C 47.7167 14.176 47.4607 13.856 47.1407 13.632C 46.8207 13.392 46.4367 13.272 45.9887 13.272C 45.1727 13.272 44.5487 13.648 44.1167 14.4C 43.7007 15.152 43.4927 16.352 43.4927 18ZM 78.8998 17.088L 79.0438 15.264L 78.9478 15.264L 78.1078 17.28L 74.0518 24L 72.9238 24L 72.9238 12L 74.6518 12L 74.6518 19.128L 74.5078 20.88L 74.6038 20.88L 75.3958 18.912L 79.4998 12L 80.6278 12L 80.6278 24L 78.8998 24L 78.8998 17.088ZM 83.4707 12L 84.6947 12L 84.9587 13.296L 85.0547 13.296C 85.6467 12.24 86.5747 11.712 87.8387 11.712C 89.1027 11.712 90.0467 12.184 90.6707 13.128C 91.3107 14.072 91.6307 15.616 91.6307 17.76C 91.6307 18.768 91.5267 19.68 91.3187 20.496C 91.1107 21.296 90.8147 21.984 90.4307 22.56C 90.0467 23.12 89.5747 23.552 89.0147 23.856C 88.4707 24.144 87.8627 24.288 87.1907 24.288C 86.7267 24.288 86.3587 24.256 86.0867 24.192C 85.8147 24.144 85.5187 24.032 85.1987 23.856L 85.1987 28.8L 83.4707 28.8L 83.4707 12ZM 85.1987 22.104C 85.4227 22.296 85.6707 22.448 85.9427 22.56C 86.2307 22.672 86.6067 22.728 87.0707 22.728C 87.9187 22.728 88.5907 22.296 89.0867 21.432C 89.5827 20.568 89.8307 19.336 89.8307 17.736C 89.8307 17.064 89.7827 16.456 89.6867 15.912C 89.6067 15.368 89.4707 14.904 89.2787 14.52C 89.0867 14.12 88.8387 13.816 88.5347 13.608C 88.2467 13.384 87.8867 13.272 87.4547 13.272C 86.2867 13.272 85.5347 13.984 85.1987 15.408L 85.1987 22.104ZM 93.3724 18C 93.3724 15.84 93.7404 14.256 94.4764 13.248C 95.2284 12.224 96.2924 11.712 97.6684 11.712C 99.1404 11.712 100.22 12.232 100.908 13.272C 101.612 14.312 101.964 15.888 101.964 18C 101.964 20.176 101.588 21.768 100.836 22.776C 100.084 23.784 99.0284 24.288 97.6684 24.288C 96.1964 24.288 95.1084 23.768 94.4044 22.728C 93.7164 21.688 93.3724 20.112 93.3724 18ZM 95.1724 18C 95.1724 18.704 95.2124 19.344 95.2924 19.92C 95.3884 20.496 95.5324 20.992 95.7244 21.408C 95.9324 21.824 96.1964 22.152 96.5164 22.392C 96.8364 22.616 97.2204 22.728 97.6684 22.728C 98.5004 22.728 99.1244 22.36 99.5404 21.624C 99.9564 20.872 100.164 19.664 100.164 18C 100.164 17.312 100.116 16.68 100.02 16.104C 99.9404 15.512 99.7964 15.008 99.5884 14.592C 99.3964 14.176 99.1404 13.856 98.8204 13.632C 98.5004 13.392 98.1164 13.272 97.6684 13.272C 96.8524 13.272 96.2284 13.648 95.7964 14.4C 95.3804 15.152 95.1724 16.352 95.1724 18ZM 104.26 12.024C 104.708 11.992 105.196 11.952 105.724 11.904C 106.252 11.856 106.884 11.832 107.62 11.832C 108.916 11.832 109.844 12.08 110.404 12.576C 110.964 13.056 111.244 13.792 111.244 14.784C 111.244 15.344 111.108 15.888 110.836 16.416C 110.58 16.944 110.14 17.344 109.516 17.616L 109.516 17.712C 110.284 17.888 110.828 18.216 111.148 18.696C 111.468 19.16 111.628 19.8 111.628 20.616C 111.628 21.864 111.26 22.768 110.524 23.328C 109.788 23.888 108.692 24.168 107.236 24.168C 106.692 24.168 106.172 24.144 105.676 24.096C 105.18 24.064 104.708 24.024 104.26 23.976L 104.26 12.024ZM 105.988 22.512C 106.228 22.544 106.452 22.568 106.66 22.584C 106.884 22.6 107.156 22.608 107.476 22.608C 108.292 22.608 108.884 22.44 109.252 22.104C 109.636 21.768 109.828 21.224 109.828 20.472C 109.828 19.896 109.668 19.424 109.348 19.056C 109.028 18.672 108.444 18.48 107.596 18.48L 105.988 18.48L 105.988 22.512ZM 107.764 17.112C 107.988 17.112 108.204 17.064 108.412 16.968C 108.62 16.856 108.804 16.712 108.964 16.536C 109.14 16.36 109.276 16.16 109.372 15.936C 109.468 15.696 109.516 15.448 109.516 15.192C 109.516 14.568 109.364 14.112 109.06 13.824C 108.772 13.536 108.268 13.392 107.548 13.392C 107.164 13.392 106.86 13.4 106.636 13.416C 106.412 13.432 106.196 13.448 105.988 13.464L 105.988 17.112L 107.764 17.112ZM 113.819 12.72C 114.283 12.432 114.843 12.208 115.499 12.048C 116.171 11.888 116.875 11.808 117.611 11.808C 118.283 11.808 118.819 11.912 119.219 12.12C 119.635 12.312 119.955 12.584 120.179 12.936C 120.419 13.272 120.571 13.664 120.635 14.112C 120.715 14.544 120.755 15 120.755 15.48C 120.755 16.44 120.731 17.376 120.683 18.288C 120.651 19.2 120.635 20.064 120.635 20.88C 120.635 21.488 120.651 22.056 120.683 22.584C 120.731 23.096 120.811 23.584 120.923 24.048L 119.603 24.048L 119.195 22.632L 119.099 22.632C 118.859 23.048 118.507 23.408 118.043 23.712C 117.579 24.016 116.955 24.168 116.171 24.168C 115.307 24.168 114.595 23.872 114.035 23.28C 113.491 22.672 113.219 21.84 113.219 20.784C 113.219 20.096 113.331 19.52 113.555 19.056C 113.795 18.592 114.123 18.216 114.539 17.928C 114.971 17.64 115.475 17.44 116.051 17.328C 116.643 17.2 117.299 17.136 118.019 17.136C 118.179 17.136 118.339 17.136 118.499 17.136C 118.659 17.136 118.827 17.144 119.003 17.16C 119.051 16.664 119.075 16.224 119.075 15.84C 119.075 14.928 118.939 14.288 118.667 13.92C 118.395 13.552 117.899 13.368 117.179 13.368C 116.731 13.368 116.243 13.44 115.715 13.584C 115.187 13.712 114.747 13.88 114.395 14.088L 113.819 12.72ZM 119.027 18.528C 118.867 18.512 118.707 18.504 118.547 18.504C 118.387 18.488 118.227 18.48 118.067 18.48C 117.683 18.48 117.307 18.512 116.939 18.576C 116.571 18.64 116.243 18.752 115.955 18.912C 115.667 19.072 115.435 19.288 115.259 19.56C 115.099 19.832 115.019 20.176 115.019 20.592C 115.019 21.232 115.171 21.728 115.475 22.08C 115.795 22.432 116.203 22.608 116.699 22.608C 117.371 22.608 117.891 22.448 118.259 22.128C 118.627 21.808 118.883 21.456 119.027 21.072L 119.027 18.528ZM 129.789 13.56L 126.837 13.56L 126.837 24L 125.109 24L 125.109 13.56L 122.157 13.56L 122.157 12L 129.789 12L 129.789 13.56ZM 132.964 22.44C 133.444 22.536 133.884 22.584 134.284 22.584C 135.788 22.584 136.54 21.792 136.54 20.208C 136.54 19.488 136.364 18.928 136.012 18.528C 135.66 18.112 135.1 17.904 134.332 17.904C 134.124 17.904 133.9 17.92 133.66 17.952C 133.42 17.968 133.188 18.008 132.964 18.072L 132.964 22.44ZM 132.964 16.584C 133.284 16.52 133.588 16.48 133.876 16.464C 134.164 16.432 134.436 16.416 134.692 16.416C 135.364 16.416 135.932 16.512 136.396 16.704C 136.86 16.88 137.236 17.128 137.524 17.448C 137.812 17.768 138.02 18.152 138.148 18.6C 138.276 19.032 138.34 19.496 138.34 19.992C 138.34 21.448 137.988 22.504 137.284 23.16C 136.58 23.816 135.476 24.144 133.972 24.144C 133.028 24.144 132.116 24.096 131.236 24L 131.236 12L 132.964 12L 132.964 16.584Z"
                id="path6_fill"/>
    </defs>
</svg>
