<svg width="8" height="16" viewBox="0 0 8 16" version="1.1" xmlns="http://www.w3.org/2000/svg" xmlns:xlink="http://www.w3.org/1999/xlink">
    <title>social-fb</title>
    <desc>Created using Figma</desc>
    <g id="Canvas" transform="translate(-12788 6125)">
        <g id="social-fb">
            <path d="M 6.8 4.66279L 4.48416 4.66279L 4.48416 3.16824C 4.48416 2.60697 4.8622 2.47611 5.12847 2.47611C 5.39413 2.47611 6.76274 2.47611 6.76274 2.47611L 6.76274 0.00864409L 4.51203 -2.5758e-16C 2.01352 -2.5758e-16 1.44494 1.84031 1.44494 3.01801L 1.44494 4.66279L 5.17246e-15 4.66279L 5.17246e-15 7.20536L 1.44494 7.20536C 1.44494 10.4684 1.44494 14.4 1.44494 14.4L 4.48416 14.4C 4.48416 14.4 4.48416 10.4297 4.48416 7.20536L 6.53494 7.20536L 6.8 4.66279Z" transform="translate(12788.4 -6124.2)" fill="#FFFFFF"></path>
        </g>
    </g>
</svg>
