<svg width="18" height="10" viewBox="0 0 18 10" version="1.1" xmlns="http://www.w3.org/2000/svg" xmlns:xlink="http://www.w3.org/1999/xlink">
    <title>social-vk</title>
    <desc>Created using Figma</desc>
    <g id="social-vk">
        <path d="M 4.05314 7.6622C 5.67312 9.35303 7.47379 9.54819 8.03869 9.56571C 8.1591 9.56944 8.27838 9.56544 8.39885 9.56544L 8.88631 9.56544C 9.11118 9.56544 9.34617 9.57165 9.54491 9.46645C 9.59591 9.43946 9.64466 9.40553 9.68379 9.36306C 9.81702 9.21745 9.82132 8.95407 9.82135 8.92264C 9.82135 8.92055 9.82132 8.91909 9.8213 8.917C 9.82066 8.85208 9.81572 7.56666 10.4274 7.3694C 11.042 7.17563 11.8372 8.67411 12.6753 9.25111C 12.8909 9.39846 13.0886 9.48501 13.2559 9.53505C 13.6027 9.63875 13.9749 9.58883 14.3368 9.58396L 15.8857 9.56311C 15.9834 9.56179 16.0811 9.5594 16.1771 9.54124C 16.4724 9.48538 17.081 9.28083 16.6512 8.56646C 16.6039 8.48895 16.3288 7.88181 14.9835 6.63308C 13.578 5.32406 13.7671 5.53505 15.4606 3.27442C 16.4921 1.89651 16.9048 1.05684 16.7758 0.695141C 16.7076 0.506601 16.4501 0.448341 16.231 0.43423C 16.0071 0.419812 15.7822 0.441855 15.5579 0.443384L 13.7041 0.456017C 13.4799 0.457545 13.2334 0.399656 13.0407 0.51429C 12.9972 0.540171 12.9588 0.576824 12.9267 0.614845C 12.8393 0.718416 12.7937 0.848825 12.7432 0.974603C 12.6039 1.32122 12.2811 2.08477 11.8845 2.7577C 10.7583 4.66955 10.3113 4.7729 10.1265 4.65233C 9.70098 4.37675 9.80414 3.54139 9.80414 2.94716C 9.80414 1.09129 10.0835 0.320521 9.25827 0.11814C 8.98318 0.0535509 8.78117 0.00618521 8.08056 0.00187924C 7.17794 -0.0067327 6.41715 0.00618521 5.98304 0.217178C 5.69506 0.359275 5.47585 0.673611 5.60909 0.690835C 5.77672 0.712365 6.15496 0.794178 6.35268 1.06545C 6.52024 1.29487 6.5753 1.70969 6.59332 1.97215C 6.60423 2.13109 6.60776 2.28942 6.61397 2.44862C 6.63635 3.02197 6.6507 4.44931 6.25382 4.66525C 5.91426 4.8504 5.44576 4.47148 4.44428 2.73617C 3.94992 1.88599 3.57401 0.944821 3.54364 0.8681C 3.54215 0.864346 3.54095 0.861286 3.53938 0.857567C 3.52736 0.829171 3.46801 0.69722 3.36825 0.609345C 3.34721 0.590815 3.30879 0.563975 3.28477 0.549518C 3.06916 0.419749 2.82208 0.429078 2.57043 0.430885L 0.600106 0.445035C 0.566773 0.445275 0.533566 0.445642 0.500351 0.448458C 0.419873 0.455279 0.258432 0.476835 0.142152 0.543561C 0.0776295 0.580587 0.0235187 0.639947 0.00776627 0.712651C -0.0085658 0.78803 0.0036669 0.874584 0.018682 0.939059C 0.0338777 1.00431 0.0592924 1.06371 0.0861942 1.12507C 0.365296 1.76165 2.10468 5.62741 4.05314 7.6622Z" fill="#FFFFFF"></path>
    </g>
</svg>
