<svg width="17" height="17" viewBox="0 0 17 17" version="1.1" xmlns="http://www.w3.org/2000/svg" xmlns:xlink="http://www.w3.org/1999/xlink">
    <title>social-insta</title>
    <desc>Created using Figma</desc>
    <g id="Canvas" transform="translate(-12898 6125)">
        <g id="social-insta">
            <g id="Vector">
                <path d="M 12.75 -8.59239e-08L 4.25 -8.59239e-08C 1.91271 -8.59239e-08 0 1.91266 0 4.24989L 0 12.7501C 0 15.0867 1.91271 17 4.25 17L 12.75 17C 15.0873 17 17 15.0867 17 12.7501L 17 4.24989C 17 1.91266 15.0873 -8.59239e-08 12.75 -8.59239e-08ZM 15.5833 12.7501C 15.5833 14.3119 14.3127 15.5833 12.75 15.5833L 4.25 15.5833C 2.68791 15.5833 1.41674 14.3119 1.41674 12.7501L 1.41674 4.24989C 1.41674 2.68763 2.68791 1.4167 4.25 1.4167L 12.75 1.4167C 14.3127 1.4167 15.5833 2.68763 15.5833 4.24989L 15.5833 12.7501Z" transform="translate(12898 -6125)" fill="#FFFFFF"></path>
            </g>
            <g id="Vector">
                <path d="M 1.0625 2.12495C 1.6493 2.12495 2.125 1.64926 2.125 1.06247C 2.125 0.475686 1.6493 0 1.0625 0C 0.475697 0 0 0.475686 0 1.06247C 0 1.64926 0.475697 2.12495 1.0625 2.12495Z" transform="translate(12910 -6122.17)" fill="#FFFFFF"></path>
            </g>
            <g id="Vector">
                <path d="M 4.25 1.16727e-07C 1.9023 1.16727e-07 0 1.90247 0 4.24989C 0 6.59647 1.9023 8.50021 4.25 8.50021C 6.59706 8.50021 8.5 6.59647 8.5 4.24989C 8.5 1.90247 6.59706 1.16727e-07 4.25 1.16727e-07ZM 4.25 7.08351C 2.68536 7.08351 1.41674 5.81492 1.41674 4.24989C 1.41674 2.68487 2.68536 1.4167 4.25 1.4167C 5.81464 1.4167 7.08326 2.68487 7.08326 4.24989C 7.08326 5.81492 5.81464 7.08351 4.25 7.08351Z" transform="translate(12902.2 -6120.75)" fill="#FFFFFF"></path>
            </g>
        </g>
    </g>
</svg>
