<svg xmlns="http://www.w3.org/2000/svg" viewBox="0 0 127 19">
    <path fill="#FFF" d="M16.4674.79999999H0V3.78795h6.74706V17.3486h3.08763V3.78795h6.63271V.79999999z"/>
    <path fill="#99E540"
          d="M72.1574 3.78795V.79999999H55.69000087V3.78795H62.43706v5.63113l-6.632704 6.66542 2.058424 2.1835 6.06092-6.0908 5.9466 6.0908 2.1727-2.1835-6.63266-6.66542V3.78795h6.74706z"/>
    <path fill="#FFF"
          d="M35.68419 2.98795c3.31631 0 6.06091 2.7581 6.06091 6.09081 0 3.33274-2.7446 6.09084-6.06091 6.09084-3.31635 0-6.06091-2.7581-6.06091-6.09084 0-3.33271 2.74456-6.09081 6.06091-6.09081zm0-2.98795c-5.0317 0-9.03419087 4.02224-9.03419087 9.07876 0 5.05654 4.00249087 9.07874 9.03419087 9.07874 5.03171 0 9.03421-4.0222 9.03421-9.07874C44.7184 4.02224 40.6015 0 35.68419 0zm81.53 2.98795c3.31631 0 6.06091 2.7581 6.06091 6.09081 0 3.33274-2.7446 6.09084-6.06091 6.09084-3.31635 0-6.06091-2.7581-6.06091-6.09084 0-3.33271 2.74456-6.09081 6.06091-6.09081zm0-2.98795c-5.0317 0-9.03419174 4.02224-9.03419174 9.07876 0 5.05654 4.00249174 9.07874 9.03419174 9.07874 5.03171 0 9.03421-4.0222 9.03421-9.07874C126.2484 4.02224 122.1315 0 117.21419 0zM97.5503 0l-6.06096 6.09082L85.54278 0l-2.17277826 2.1835L90.0027 8.734v8.6191h2.97328V8.84892L99.6087 2.1835 97.5503 0z"/>
</svg>